<svg id="svg" version="1.1" xmlns="http://www.w3.org/2000/svg" xmlns:xlink="http://www.w3.org/1999/xlink" viewBox="0 0 512 512">><g id="svgg"><path id="path0" d="M160.882 21.805 C 76.973 44.403,26.905 128.380,47.076 212.691 C 59.628 265.158,142.558 393.329,192.888 438.048 C 201.877 446.036,204.933 443.510,244.975 395.000 C 339.200 280.847,372.155 197.025,350.351 126.970 C 325.927 48.493,239.634 0.596,160.882 21.805 M218.485 74.848 C 239.882 96.246,217.568 131.419,189.873 119.947 C 162.859 108.758,170.859 66.667,200.000 66.667 C 206.495 66.667,213.327 69.691,218.485 74.848 M189.730 142.500 C 199.511 148.056,200.489 148.056,210.270 142.500 C 239.860 125.693,253.333 141.924,253.333 194.376 L 253.333 229.191 243.795 233.142 C 233.564 237.380,230.084 254.095,230.024 299.296 L 230.000 316.926 200.833 315.963 C 174.472 315.093,171.603 314.359,171.003 308.333 C 170.638 304.667,169.383 287.170,168.213 269.451 C 166.125 237.808,165.915 237.164,156.377 233.213 L 146.667 229.191 146.667 194.376 C 146.667 141.924,160.140 125.693,189.730 142.500 M126.667 424.759 C 82.623 436.982,63.296 464.392,83.461 486.035 C 130.325 536.339,323.333 521.260,323.333 467.295 C 323.333 434.355,238.445 401.422,236.773 433.714 C 236.714 434.839,243.042 436.682,250.833 437.808 C 340.073 450.703,317.647 492.790,218.295 498.872 C 107.956 505.626,45.186 458.109,140.000 439.602 C 166.265 434.476,164.727 435.474,159.429 426.991 C 154.529 419.146,148.399 418.728,126.667 424.759 M163.333 448.905 C 97.496 459.413,123.488 485.000,200.000 485.000 C 278.833 485.000,302.966 458.308,232.715 448.816 C 221.800 447.341,219.292 448.489,210.215 459.115 L 200.000 471.074 189.576 458.870 C 183.843 452.158,177.468 446.871,175.409 447.121 C 173.351 447.370,167.917 448.173,163.333 448.905 " stroke="none" fill="#000000" fill-rule="evenodd"></path></g></svg>