<svg id="svg" xmlns="http://www.w3.org/2000/svg" xmlns:xlink="http://www.w3.org/1999/xlink" width="400" height="400"
    viewBox="0, 0, 400, 400">
    <g id="svgg">
        <path id="path0"
            d="M167.313 23.163 C 100.987 39.221,56.857 113.850,76.175 177.289 C 88.153 216.625,130.065 286.375,183.460 355.836 C 205.475 384.474,202.601 384.418,222.496 356.602 C 292.402 258.865,325.493 194.044,327.457 151.000 C 331.329 66.115,251.875 2.690,167.313 23.163 M232.000 52.686 C 338.931 90.540,313.144 248.044,200.000 248.138 C 110.518 248.212,65.700 140.387,128.931 77.156 C 155.941 50.146,197.172 40.357,232.000 52.686 M167.945 91.302 C 114.817 126.781,136.926 208.000,199.712 208.000 C 225.120 208.000,246.272 195.106,257.071 173.034 C 263.869 159.140,263.139 152.112,256.000 162.726 C 241.103 184.874,210.149 191.950,185.898 178.751 C 155.070 161.973,148.324 119.532,172.505 94.500 C 179.330 87.436,176.601 85.522,167.945 91.302 M208.021 112.912 L 205.403 123.825 193.202 124.412 L 181.000 125.000 190.496 131.000 C 201.476 137.937,201.169 136.887,196.029 149.926 C 191.336 161.833,192.530 162.301,204.145 153.109 L 212.854 146.218 221.536 153.333 C 232.276 162.133,233.253 161.327,228.000 148.000 C 225.719 142.214,224.111 137.261,224.427 136.994 C 224.742 136.727,229.500 133.711,235.000 130.292 L 245.000 124.076 231.818 124.038 L 218.637 124.000 216.175 113.000 C 213.080 99.171,211.322 99.152,208.021 112.912 "
            stroke="none" fill-rule="evenodd"></path>
    </g>
</svg>